<mxfile host="app.diagrams.net" agent="Mozilla/5.0 (Windows NT 10.0; Win64; x64) AppleWebKit/537.36 (KHTML, like Gecko) Chrome/130.0.0.0 Safari/537.36" version="24.8.4" pages="5">
  <diagram id="C5RBs43oDa-KdzZeNtuy" name="Manager">
    <mxGraphModel dx="1430" dy="812" grid="1" gridSize="10" guides="1" tooltips="1" connect="1" arrows="1" fold="1" page="1" pageScale="1" pageWidth="827" pageHeight="1169" math="0" shadow="0">
      <root>
        <mxCell id="WIyWlLk6GJQsqaUBKTNV-0" />
        <mxCell id="WIyWlLk6GJQsqaUBKTNV-1" parent="WIyWlLk6GJQsqaUBKTNV-0" />
        <mxCell id="9lalcjFkK34h0deYs-YS-0" value="ManagerSample" style="swimlane;fontStyle=0;childLayout=stackLayout;horizontal=1;startSize=30;horizontalStack=0;resizeParent=1;resizeParentMax=0;resizeLast=0;collapsible=1;marginBottom=0;whiteSpace=wrap;html=1;" parent="WIyWlLk6GJQsqaUBKTNV-1" vertex="1">
          <mxGeometry x="344" y="40" width="140" height="120" as="geometry" />
        </mxCell>
        <mxCell id="9lalcjFkK34h0deYs-YS-1" value="manager" style="text;strokeColor=none;fillColor=none;align=left;verticalAlign=middle;spacingLeft=4;spacingRight=4;overflow=hidden;points=[[0,0.5],[1,0.5]];portConstraint=eastwest;rotatable=0;whiteSpace=wrap;html=1;" parent="9lalcjFkK34h0deYs-YS-0" vertex="1">
          <mxGeometry y="30" width="140" height="30" as="geometry" />
        </mxCell>
        <mxCell id="_mAt1zkfzUNuX4AdIRLx-2" value="manage" style="text;strokeColor=none;fillColor=none;align=left;verticalAlign=middle;spacingLeft=4;spacingRight=4;overflow=hidden;points=[[0,0.5],[1,0.5]];portConstraint=eastwest;rotatable=0;whiteSpace=wrap;html=1;" parent="9lalcjFkK34h0deYs-YS-0" vertex="1">
          <mxGeometry y="60" width="140" height="30" as="geometry" />
        </mxCell>
        <mxCell id="9lalcjFkK34h0deYs-YS-2" value="User samples" style="text;strokeColor=none;fillColor=none;align=left;verticalAlign=middle;spacingLeft=4;spacingRight=4;overflow=hidden;points=[[0,0.5],[1,0.5]];portConstraint=eastwest;rotatable=0;whiteSpace=wrap;html=1;" parent="9lalcjFkK34h0deYs-YS-0" vertex="1">
          <mxGeometry y="90" width="140" height="30" as="geometry" />
        </mxCell>
        <mxCell id="9lalcjFkK34h0deYs-YS-4" value="Manager" style="swimlane;fontStyle=0;childLayout=stackLayout;horizontal=1;startSize=30;horizontalStack=0;resizeParent=1;resizeParentMax=0;resizeLast=0;collapsible=1;marginBottom=0;whiteSpace=wrap;html=1;" parent="WIyWlLk6GJQsqaUBKTNV-1" vertex="1">
          <mxGeometry x="170" y="240" width="140" height="120" as="geometry" />
        </mxCell>
        <mxCell id="9lalcjFkK34h0deYs-YS-5" value="generateOutput()" style="text;strokeColor=none;fillColor=none;align=left;verticalAlign=middle;spacingLeft=4;spacingRight=4;overflow=hidden;points=[[0,0.5],[1,0.5]];portConstraint=eastwest;rotatable=0;whiteSpace=wrap;html=1;" parent="9lalcjFkK34h0deYs-YS-4" vertex="1">
          <mxGeometry y="30" width="140" height="30" as="geometry" />
        </mxCell>
        <mxCell id="9lalcjFkK34h0deYs-YS-6" value="manage" style="text;strokeColor=none;fillColor=none;align=left;verticalAlign=middle;spacingLeft=4;spacingRight=4;overflow=hidden;points=[[0,0.5],[1,0.5]];portConstraint=eastwest;rotatable=0;whiteSpace=wrap;html=1;" parent="9lalcjFkK34h0deYs-YS-4" vertex="1">
          <mxGeometry y="60" width="140" height="30" as="geometry" />
        </mxCell>
        <mxCell id="9lalcjFkK34h0deYs-YS-7" value="getCommand()" style="text;strokeColor=none;fillColor=none;align=left;verticalAlign=middle;spacingLeft=4;spacingRight=4;overflow=hidden;points=[[0,0.5],[1,0.5]];portConstraint=eastwest;rotatable=0;whiteSpace=wrap;html=1;" parent="9lalcjFkK34h0deYs-YS-4" vertex="1">
          <mxGeometry y="90" width="140" height="30" as="geometry" />
        </mxCell>
        <mxCell id="uS3xI6hyBrzMzEx2bjeM-0" value="User" style="swimlane;fontStyle=0;childLayout=stackLayout;horizontal=1;startSize=30;horizontalStack=0;resizeParent=1;resizeParentMax=0;resizeLast=0;collapsible=1;marginBottom=0;whiteSpace=wrap;html=1;" vertex="1" parent="WIyWlLk6GJQsqaUBKTNV-1">
          <mxGeometry x="500" y="420" width="140" height="90" as="geometry" />
        </mxCell>
        <mxCell id="uS3xI6hyBrzMzEx2bjeM-1" value="username" style="text;strokeColor=none;fillColor=none;align=left;verticalAlign=middle;spacingLeft=4;spacingRight=4;overflow=hidden;points=[[0,0.5],[1,0.5]];portConstraint=eastwest;rotatable=0;whiteSpace=wrap;html=1;" vertex="1" parent="uS3xI6hyBrzMzEx2bjeM-0">
          <mxGeometry y="30" width="140" height="30" as="geometry" />
        </mxCell>
        <mxCell id="uS3xI6hyBrzMzEx2bjeM-2" value="password" style="text;strokeColor=none;fillColor=none;align=left;verticalAlign=middle;spacingLeft=4;spacingRight=4;overflow=hidden;points=[[0,0.5],[1,0.5]];portConstraint=eastwest;rotatable=0;whiteSpace=wrap;html=1;" vertex="1" parent="uS3xI6hyBrzMzEx2bjeM-0">
          <mxGeometry y="60" width="140" height="30" as="geometry" />
        </mxCell>
      </root>
    </mxGraphModel>
  </diagram>
  <diagram id="DwojUP_LBBu_fwgv5v8n" name="User">
    <mxGraphModel dx="988" dy="561" grid="1" gridSize="10" guides="1" tooltips="1" connect="1" arrows="1" fold="1" page="1" pageScale="1" pageWidth="827" pageHeight="1169" math="0" shadow="0">
      <root>
        <mxCell id="0" />
        <mxCell id="1" parent="0" />
        <mxCell id="hPZD_rOKQj6wQK61BIAW-1" value="User" style="swimlane;fontStyle=0;childLayout=stackLayout;horizontal=1;startSize=30;horizontalStack=0;resizeParent=1;resizeParentMax=0;resizeLast=0;collapsible=1;marginBottom=0;whiteSpace=wrap;html=1;" vertex="1" parent="1">
          <mxGeometry x="300" y="50" width="140" height="90" as="geometry" />
        </mxCell>
        <mxCell id="hPZD_rOKQj6wQK61BIAW-2" value="username" style="text;strokeColor=none;fillColor=none;align=left;verticalAlign=middle;spacingLeft=4;spacingRight=4;overflow=hidden;points=[[0,0.5],[1,0.5]];portConstraint=eastwest;rotatable=0;whiteSpace=wrap;html=1;" vertex="1" parent="hPZD_rOKQj6wQK61BIAW-1">
          <mxGeometry y="30" width="140" height="30" as="geometry" />
        </mxCell>
        <mxCell id="hPZD_rOKQj6wQK61BIAW-3" value="password" style="text;strokeColor=none;fillColor=none;align=left;verticalAlign=middle;spacingLeft=4;spacingRight=4;overflow=hidden;points=[[0,0.5],[1,0.5]];portConstraint=eastwest;rotatable=0;whiteSpace=wrap;html=1;" vertex="1" parent="hPZD_rOKQj6wQK61BIAW-1">
          <mxGeometry y="60" width="140" height="30" as="geometry" />
        </mxCell>
        <mxCell id="pct0P5a1H9BBVqGQqAlK-1" value="Player" style="swimlane;fontStyle=0;childLayout=stackLayout;horizontal=1;startSize=30;horizontalStack=0;resizeParent=1;resizeParentMax=0;resizeLast=0;collapsible=1;marginBottom=0;whiteSpace=wrap;html=1;" vertex="1" parent="1">
          <mxGeometry x="200" y="190" width="140" height="390" as="geometry" />
        </mxCell>
        <mxCell id="pct0P5a1H9BBVqGQqAlK-2" value="forename" style="text;strokeColor=none;fillColor=none;align=left;verticalAlign=middle;spacingLeft=4;spacingRight=4;overflow=hidden;points=[[0,0.5],[1,0.5]];portConstraint=eastwest;rotatable=0;whiteSpace=wrap;html=1;" vertex="1" parent="pct0P5a1H9BBVqGQqAlK-1">
          <mxGeometry y="30" width="140" height="30" as="geometry" />
        </mxCell>
        <mxCell id="pct0P5a1H9BBVqGQqAlK-3" value="surname" style="text;strokeColor=none;fillColor=none;align=left;verticalAlign=middle;spacingLeft=4;spacingRight=4;overflow=hidden;points=[[0,0.5],[1,0.5]];portConstraint=eastwest;rotatable=0;whiteSpace=wrap;html=1;" vertex="1" parent="pct0P5a1H9BBVqGQqAlK-1">
          <mxGeometry y="60" width="140" height="30" as="geometry" />
        </mxCell>
        <mxCell id="pct0P5a1H9BBVqGQqAlK-4" value="ID" style="text;strokeColor=none;fillColor=none;align=left;verticalAlign=middle;spacingLeft=4;spacingRight=4;overflow=hidden;points=[[0,0.5],[1,0.5]];portConstraint=eastwest;rotatable=0;whiteSpace=wrap;html=1;" vertex="1" parent="pct0P5a1H9BBVqGQqAlK-1">
          <mxGeometry y="90" width="140" height="30" as="geometry" />
        </mxCell>
        <mxCell id="pct0P5a1H9BBVqGQqAlK-16" value="markedPoints" style="text;strokeColor=none;fillColor=none;align=left;verticalAlign=middle;spacingLeft=4;spacingRight=4;overflow=hidden;points=[[0,0.5],[1,0.5]];portConstraint=eastwest;rotatable=0;whiteSpace=wrap;html=1;" vertex="1" parent="pct0P5a1H9BBVqGQqAlK-1">
          <mxGeometry y="120" width="140" height="30" as="geometry" />
        </mxCell>
        <mxCell id="pct0P5a1H9BBVqGQqAlK-17" value="matchesWon" style="text;strokeColor=none;fillColor=none;align=left;verticalAlign=middle;spacingLeft=4;spacingRight=4;overflow=hidden;points=[[0,0.5],[1,0.5]];portConstraint=eastwest;rotatable=0;whiteSpace=wrap;html=1;" vertex="1" parent="pct0P5a1H9BBVqGQqAlK-1">
          <mxGeometry y="150" width="140" height="30" as="geometry" />
        </mxCell>
        <mxCell id="pct0P5a1H9BBVqGQqAlK-18" value="assistancePoints" style="text;strokeColor=none;fillColor=none;align=left;verticalAlign=middle;spacingLeft=4;spacingRight=4;overflow=hidden;points=[[0,0.5],[1,0.5]];portConstraint=eastwest;rotatable=0;whiteSpace=wrap;html=1;" vertex="1" parent="pct0P5a1H9BBVqGQqAlK-1">
          <mxGeometry y="180" width="140" height="30" as="geometry" />
        </mxCell>
        <mxCell id="pct0P5a1H9BBVqGQqAlK-19" value="tournamentsWon" style="text;strokeColor=none;fillColor=none;align=left;verticalAlign=middle;spacingLeft=4;spacingRight=4;overflow=hidden;points=[[0,0.5],[1,0.5]];portConstraint=eastwest;rotatable=0;whiteSpace=wrap;html=1;" vertex="1" parent="pct0P5a1H9BBVqGQqAlK-1">
          <mxGeometry y="210" width="140" height="30" as="geometry" />
        </mxCell>
        <mxCell id="pct0P5a1H9BBVqGQqAlK-20" value="generatedMoney" style="text;strokeColor=none;fillColor=none;align=left;verticalAlign=middle;spacingLeft=4;spacingRight=4;overflow=hidden;points=[[0,0.5],[1,0.5]];portConstraint=eastwest;rotatable=0;whiteSpace=wrap;html=1;" vertex="1" parent="pct0P5a1H9BBVqGQqAlK-1">
          <mxGeometry y="240" width="140" height="30" as="geometry" />
        </mxCell>
        <mxCell id="pct0P5a1H9BBVqGQqAlK-24" value="" style="endArrow=none;dashed=1;html=1;rounded=0;entryX=1.002;entryY=-0.009;entryDx=0;entryDy=0;entryPerimeter=0;" edge="1" parent="pct0P5a1H9BBVqGQqAlK-1">
          <mxGeometry width="50" height="50" relative="1" as="geometry">
            <mxPoint y="269.30999999999995" as="sourcePoint" />
            <mxPoint x="140" y="269.30999999999995" as="targetPoint" />
          </mxGeometry>
        </mxCell>
        <mxCell id="pct0P5a1H9BBVqGQqAlK-21" value="admin" style="text;strokeColor=none;fillColor=none;align=left;verticalAlign=middle;spacingLeft=4;spacingRight=4;overflow=hidden;points=[[0,0.5],[1,0.5]];portConstraint=eastwest;rotatable=0;whiteSpace=wrap;html=1;" vertex="1" parent="pct0P5a1H9BBVqGQqAlK-1">
          <mxGeometry y="270" width="140" height="30" as="geometry" />
        </mxCell>
        <mxCell id="pct0P5a1H9BBVqGQqAlK-23" value="" style="endArrow=none;dashed=1;html=1;rounded=0;entryX=1.002;entryY=-0.009;entryDx=0;entryDy=0;entryPerimeter=0;" edge="1" parent="pct0P5a1H9BBVqGQqAlK-1" target="pct0P5a1H9BBVqGQqAlK-16">
          <mxGeometry width="50" height="50" relative="1" as="geometry">
            <mxPoint y="120" as="sourcePoint" />
            <mxPoint x="220" y="-40" as="targetPoint" />
          </mxGeometry>
        </mxCell>
        <mxCell id="6DnrpjbKYWEONXT4Oe_p-4" value="tournamentAdd()" style="text;strokeColor=none;fillColor=none;align=left;verticalAlign=middle;spacingLeft=4;spacingRight=4;overflow=hidden;points=[[0,0.5],[1,0.5]];portConstraint=eastwest;rotatable=0;whiteSpace=wrap;html=1;" vertex="1" parent="pct0P5a1H9BBVqGQqAlK-1">
          <mxGeometry y="300" width="140" height="30" as="geometry" />
        </mxCell>
        <mxCell id="6DnrpjbKYWEONXT4Oe_p-5" value="tournamentRemove()" style="text;strokeColor=none;fillColor=none;align=left;verticalAlign=middle;spacingLeft=4;spacingRight=4;overflow=hidden;points=[[0,0.5],[1,0.5]];portConstraint=eastwest;rotatable=0;whiteSpace=wrap;html=1;" vertex="1" parent="pct0P5a1H9BBVqGQqAlK-1">
          <mxGeometry y="330" width="140" height="30" as="geometry" />
        </mxCell>
        <mxCell id="6DnrpjbKYWEONXT4Oe_p-6" value="statisticsShow()" style="text;strokeColor=none;fillColor=none;align=left;verticalAlign=middle;spacingLeft=4;spacingRight=4;overflow=hidden;points=[[0,0.5],[1,0.5]];portConstraint=eastwest;rotatable=0;whiteSpace=wrap;html=1;" vertex="1" parent="pct0P5a1H9BBVqGQqAlK-1">
          <mxGeometry y="360" width="140" height="30" as="geometry" />
        </mxCell>
        <mxCell id="6DnrpjbKYWEONXT4Oe_p-7" value="" style="endArrow=none;html=1;rounded=0;exitX=0.004;exitY=0.998;exitDx=0;exitDy=0;exitPerimeter=0;entryX=1.001;entryY=-0.002;entryDx=0;entryDy=0;entryPerimeter=0;" edge="1" parent="pct0P5a1H9BBVqGQqAlK-1" source="pct0P5a1H9BBVqGQqAlK-21" target="6DnrpjbKYWEONXT4Oe_p-4">
          <mxGeometry width="50" height="50" relative="1" as="geometry">
            <mxPoint x="160" y="280" as="sourcePoint" />
            <mxPoint x="210" y="230" as="targetPoint" />
          </mxGeometry>
        </mxCell>
        <mxCell id="pct0P5a1H9BBVqGQqAlK-8" value="" style="endArrow=none;html=1;rounded=0;entryX=0.495;entryY=1.002;entryDx=0;entryDy=0;entryPerimeter=0;exitX=0.5;exitY=0;exitDx=0;exitDy=0;" edge="1" parent="1" source="pct0P5a1H9BBVqGQqAlK-1" target="hPZD_rOKQj6wQK61BIAW-3">
          <mxGeometry width="50" height="50" relative="1" as="geometry">
            <mxPoint x="370" y="200" as="sourcePoint" />
            <mxPoint x="420" y="150" as="targetPoint" />
          </mxGeometry>
        </mxCell>
        <mxCell id="pct0P5a1H9BBVqGQqAlK-13" value="" style="endArrow=none;html=1;rounded=0;exitX=0.5;exitY=0;exitDx=0;exitDy=0;" edge="1" parent="1">
          <mxGeometry width="50" height="50" relative="1" as="geometry">
            <mxPoint x="470" y="190" as="sourcePoint" />
            <mxPoint x="370" y="140" as="targetPoint" />
          </mxGeometry>
        </mxCell>
        <mxCell id="6DnrpjbKYWEONXT4Oe_p-10" value="Admin" style="swimlane;fontStyle=0;childLayout=stackLayout;horizontal=1;startSize=30;horizontalStack=0;resizeParent=1;resizeParentMax=0;resizeLast=0;collapsible=1;marginBottom=0;whiteSpace=wrap;html=1;" vertex="1" parent="1">
          <mxGeometry x="400" y="190" width="140" height="300" as="geometry" />
        </mxCell>
        <mxCell id="6DnrpjbKYWEONXT4Oe_p-11" value="playerCreate()" style="text;strokeColor=none;fillColor=none;align=left;verticalAlign=middle;spacingLeft=4;spacingRight=4;overflow=hidden;points=[[0,0.5],[1,0.5]];portConstraint=eastwest;rotatable=0;whiteSpace=wrap;html=1;" vertex="1" parent="6DnrpjbKYWEONXT4Oe_p-10">
          <mxGeometry y="30" width="140" height="30" as="geometry" />
        </mxCell>
        <mxCell id="6DnrpjbKYWEONXT4Oe_p-12" value="teamCreate()" style="text;strokeColor=none;fillColor=none;align=left;verticalAlign=middle;spacingLeft=4;spacingRight=4;overflow=hidden;points=[[0,0.5],[1,0.5]];portConstraint=eastwest;rotatable=0;whiteSpace=wrap;html=1;" vertex="1" parent="6DnrpjbKYWEONXT4Oe_p-10">
          <mxGeometry y="60" width="140" height="30" as="geometry" />
        </mxCell>
        <mxCell id="6DnrpjbKYWEONXT4Oe_p-13" value="password" style="text;strokeColor=none;fillColor=none;align=left;verticalAlign=middle;spacingLeft=4;spacingRight=4;overflow=hidden;points=[[0,0.5],[1,0.5]];portConstraint=eastwest;rotatable=0;whiteSpace=wrap;html=1;" vertex="1" parent="6DnrpjbKYWEONXT4Oe_p-10">
          <mxGeometry y="90" width="140" height="30" as="geometry" />
        </mxCell>
        <mxCell id="6DnrpjbKYWEONXT4Oe_p-14" value="password" style="text;strokeColor=none;fillColor=none;align=left;verticalAlign=middle;spacingLeft=4;spacingRight=4;overflow=hidden;points=[[0,0.5],[1,0.5]];portConstraint=eastwest;rotatable=0;whiteSpace=wrap;html=1;" vertex="1" parent="6DnrpjbKYWEONXT4Oe_p-10">
          <mxGeometry y="120" width="140" height="30" as="geometry" />
        </mxCell>
        <mxCell id="6DnrpjbKYWEONXT4Oe_p-15" value="password" style="text;strokeColor=none;fillColor=none;align=left;verticalAlign=middle;spacingLeft=4;spacingRight=4;overflow=hidden;points=[[0,0.5],[1,0.5]];portConstraint=eastwest;rotatable=0;whiteSpace=wrap;html=1;" vertex="1" parent="6DnrpjbKYWEONXT4Oe_p-10">
          <mxGeometry y="150" width="140" height="30" as="geometry" />
        </mxCell>
        <mxCell id="6DnrpjbKYWEONXT4Oe_p-16" value="username" style="text;strokeColor=none;fillColor=none;align=left;verticalAlign=middle;spacingLeft=4;spacingRight=4;overflow=hidden;points=[[0,0.5],[1,0.5]];portConstraint=eastwest;rotatable=0;whiteSpace=wrap;html=1;" vertex="1" parent="6DnrpjbKYWEONXT4Oe_p-10">
          <mxGeometry y="180" width="140" height="30" as="geometry" />
        </mxCell>
        <mxCell id="6DnrpjbKYWEONXT4Oe_p-17" value="password" style="text;strokeColor=none;fillColor=none;align=left;verticalAlign=middle;spacingLeft=4;spacingRight=4;overflow=hidden;points=[[0,0.5],[1,0.5]];portConstraint=eastwest;rotatable=0;whiteSpace=wrap;html=1;" vertex="1" parent="6DnrpjbKYWEONXT4Oe_p-10">
          <mxGeometry y="210" width="140" height="30" as="geometry" />
        </mxCell>
        <mxCell id="6DnrpjbKYWEONXT4Oe_p-18" value="password" style="text;strokeColor=none;fillColor=none;align=left;verticalAlign=middle;spacingLeft=4;spacingRight=4;overflow=hidden;points=[[0,0.5],[1,0.5]];portConstraint=eastwest;rotatable=0;whiteSpace=wrap;html=1;" vertex="1" parent="6DnrpjbKYWEONXT4Oe_p-10">
          <mxGeometry y="240" width="140" height="30" as="geometry" />
        </mxCell>
        <mxCell id="6DnrpjbKYWEONXT4Oe_p-19" value="username" style="text;strokeColor=none;fillColor=none;align=left;verticalAlign=middle;spacingLeft=4;spacingRight=4;overflow=hidden;points=[[0,0.5],[1,0.5]];portConstraint=eastwest;rotatable=0;whiteSpace=wrap;html=1;" vertex="1" parent="6DnrpjbKYWEONXT4Oe_p-10">
          <mxGeometry y="270" width="140" height="30" as="geometry" />
        </mxCell>
      </root>
    </mxGraphModel>
  </diagram>
  <diagram id="UkPNasr640KHGPOBI83T" name="Team">
    <mxGraphModel dx="1430" dy="812" grid="1" gridSize="10" guides="1" tooltips="1" connect="1" arrows="1" fold="1" page="1" pageScale="1" pageWidth="827" pageHeight="1169" math="0" shadow="0">
      <root>
        <mxCell id="0" />
        <mxCell id="1" parent="0" />
        <mxCell id="cuO1aU_OJa2ozchh5eHE-1" value="Team" style="swimlane;fontStyle=0;childLayout=stackLayout;horizontal=1;startSize=30;horizontalStack=0;resizeParent=1;resizeParentMax=0;resizeLast=0;collapsible=1;marginBottom=0;whiteSpace=wrap;html=1;" vertex="1" parent="1">
          <mxGeometry x="290" y="220" width="140" height="270" as="geometry" />
        </mxCell>
        <mxCell id="cuO1aU_OJa2ozchh5eHE-2" value="name" style="text;strokeColor=none;fillColor=none;align=left;verticalAlign=middle;spacingLeft=4;spacingRight=4;overflow=hidden;points=[[0,0.5],[1,0.5]];portConstraint=eastwest;rotatable=0;whiteSpace=wrap;html=1;" vertex="1" parent="cuO1aU_OJa2ozchh5eHE-1">
          <mxGeometry y="30" width="140" height="30" as="geometry" />
        </mxCell>
        <mxCell id="cuO1aU_OJa2ozchh5eHE-3" value="PlayerList &amp;gt; 1" style="text;strokeColor=none;fillColor=none;align=left;verticalAlign=middle;spacingLeft=4;spacingRight=4;overflow=hidden;points=[[0,0.5],[1,0.5]];portConstraint=eastwest;rotatable=0;whiteSpace=wrap;html=1;" vertex="1" parent="cuO1aU_OJa2ozchh5eHE-1">
          <mxGeometry y="60" width="140" height="30" as="geometry" />
        </mxCell>
        <mxCell id="cuO1aU_OJa2ozchh5eHE-12" value="" style="endArrow=none;dashed=1;html=1;rounded=0;entryX=1.002;entryY=-0.009;entryDx=0;entryDy=0;entryPerimeter=0;" edge="1" parent="cuO1aU_OJa2ozchh5eHE-1">
          <mxGeometry width="50" height="50" relative="1" as="geometry">
            <mxPoint y="90.27" as="sourcePoint" />
            <mxPoint x="140.27999999999997" y="90.00000000000001" as="targetPoint" />
          </mxGeometry>
        </mxCell>
        <mxCell id="cuO1aU_OJa2ozchh5eHE-5" value="markedPoints" style="text;strokeColor=none;fillColor=none;align=left;verticalAlign=middle;spacingLeft=4;spacingRight=4;overflow=hidden;points=[[0,0.5],[1,0.5]];portConstraint=eastwest;rotatable=0;whiteSpace=wrap;html=1;" vertex="1" parent="cuO1aU_OJa2ozchh5eHE-1">
          <mxGeometry y="90" width="140" height="30" as="geometry" />
        </mxCell>
        <mxCell id="cuO1aU_OJa2ozchh5eHE-6" value="matchesWon" style="text;strokeColor=none;fillColor=none;align=left;verticalAlign=middle;spacingLeft=4;spacingRight=4;overflow=hidden;points=[[0,0.5],[1,0.5]];portConstraint=eastwest;rotatable=0;whiteSpace=wrap;html=1;" vertex="1" parent="cuO1aU_OJa2ozchh5eHE-1">
          <mxGeometry y="120" width="140" height="30" as="geometry" />
        </mxCell>
        <mxCell id="cuO1aU_OJa2ozchh5eHE-7" value="assistancePoints" style="text;strokeColor=none;fillColor=none;align=left;verticalAlign=middle;spacingLeft=4;spacingRight=4;overflow=hidden;points=[[0,0.5],[1,0.5]];portConstraint=eastwest;rotatable=0;whiteSpace=wrap;html=1;" vertex="1" parent="cuO1aU_OJa2ozchh5eHE-1">
          <mxGeometry y="150" width="140" height="30" as="geometry" />
        </mxCell>
        <mxCell id="cuO1aU_OJa2ozchh5eHE-8" value="tournamentsWon" style="text;strokeColor=none;fillColor=none;align=left;verticalAlign=middle;spacingLeft=4;spacingRight=4;overflow=hidden;points=[[0,0.5],[1,0.5]];portConstraint=eastwest;rotatable=0;whiteSpace=wrap;html=1;" vertex="1" parent="cuO1aU_OJa2ozchh5eHE-1">
          <mxGeometry y="180" width="140" height="30" as="geometry" />
        </mxCell>
        <mxCell id="cuO1aU_OJa2ozchh5eHE-9" value="generatedMoney" style="text;strokeColor=none;fillColor=none;align=left;verticalAlign=middle;spacingLeft=4;spacingRight=4;overflow=hidden;points=[[0,0.5],[1,0.5]];portConstraint=eastwest;rotatable=0;whiteSpace=wrap;html=1;" vertex="1" parent="cuO1aU_OJa2ozchh5eHE-1">
          <mxGeometry y="210" width="140" height="30" as="geometry" />
        </mxCell>
        <mxCell id="cuO1aU_OJa2ozchh5eHE-10" value="" style="endArrow=none;dashed=1;html=1;rounded=0;entryX=1.002;entryY=-0.009;entryDx=0;entryDy=0;entryPerimeter=0;" edge="1" parent="cuO1aU_OJa2ozchh5eHE-1" source="cuO1aU_OJa2ozchh5eHE-11">
          <mxGeometry width="50" height="50" relative="1" as="geometry">
            <mxPoint y="269.30999999999995" as="sourcePoint" />
            <mxPoint x="140" y="269.30999999999995" as="targetPoint" />
          </mxGeometry>
        </mxCell>
        <mxCell id="cuO1aU_OJa2ozchh5eHE-11" value="admin" style="text;strokeColor=none;fillColor=none;align=left;verticalAlign=middle;spacingLeft=4;spacingRight=4;overflow=hidden;points=[[0,0.5],[1,0.5]];portConstraint=eastwest;rotatable=0;whiteSpace=wrap;html=1;" vertex="1" parent="cuO1aU_OJa2ozchh5eHE-1">
          <mxGeometry y="240" width="140" height="30" as="geometry" />
        </mxCell>
        <mxCell id="cuO1aU_OJa2ozchh5eHE-13" value="" style="endArrow=none;dashed=1;html=1;rounded=0;entryX=0;entryY=0.014;entryDx=0;entryDy=0;entryPerimeter=0;exitX=0.995;exitY=1.014;exitDx=0;exitDy=0;exitPerimeter=0;" edge="1" parent="cuO1aU_OJa2ozchh5eHE-1" source="cuO1aU_OJa2ozchh5eHE-9" target="cuO1aU_OJa2ozchh5eHE-11">
          <mxGeometry width="50" height="50" relative="1" as="geometry">
            <mxPoint x="329.72" y="489.76" as="sourcePoint" />
            <mxPoint x="180" y="239.99999999999994" as="targetPoint" />
          </mxGeometry>
        </mxCell>
      </root>
    </mxGraphModel>
  </diagram>
  <diagram id="e91CD232MdZq4GR0_ZbF" name="Tournament">
    <mxGraphModel dx="1430" dy="812" grid="1" gridSize="10" guides="1" tooltips="1" connect="1" arrows="1" fold="1" page="1" pageScale="1" pageWidth="827" pageHeight="1169" math="0" shadow="0">
      <root>
        <mxCell id="0" />
        <mxCell id="1" parent="0" />
        <mxCell id="ROnOkawZ2Cybfb2u-ls_-1" value="Tournament" style="swimlane;fontStyle=0;childLayout=stackLayout;horizontal=1;startSize=30;horizontalStack=0;resizeParent=1;resizeParentMax=0;resizeLast=0;collapsible=1;marginBottom=0;whiteSpace=wrap;html=1;" vertex="1" parent="1">
          <mxGeometry x="330" y="370" width="140" height="180" as="geometry" />
        </mxCell>
        <mxCell id="ROnOkawZ2Cybfb2u-ls_-2" value="name" style="text;strokeColor=none;fillColor=none;align=left;verticalAlign=middle;spacingLeft=4;spacingRight=4;overflow=hidden;points=[[0,0.5],[1,0.5]];portConstraint=eastwest;rotatable=0;whiteSpace=wrap;html=1;" vertex="1" parent="ROnOkawZ2Cybfb2u-ls_-1">
          <mxGeometry y="30" width="140" height="30" as="geometry" />
        </mxCell>
        <mxCell id="ROnOkawZ2Cybfb2u-ls_-3" value="startDate" style="text;strokeColor=none;fillColor=none;align=left;verticalAlign=middle;spacingLeft=4;spacingRight=4;overflow=hidden;points=[[0,0.5],[1,0.5]];portConstraint=eastwest;rotatable=0;whiteSpace=wrap;html=1;" vertex="1" parent="ROnOkawZ2Cybfb2u-ls_-1">
          <mxGeometry y="60" width="140" height="30" as="geometry" />
        </mxCell>
        <mxCell id="ROnOkawZ2Cybfb2u-ls_-4" value="endDate" style="text;strokeColor=none;fillColor=none;align=left;verticalAlign=middle;spacingLeft=4;spacingRight=4;overflow=hidden;points=[[0,0.5],[1,0.5]];portConstraint=eastwest;rotatable=0;whiteSpace=wrap;html=1;" vertex="1" parent="ROnOkawZ2Cybfb2u-ls_-1">
          <mxGeometry y="90" width="140" height="30" as="geometry" />
        </mxCell>
        <mxCell id="ROnOkawZ2Cybfb2u-ls_-5" value="league" style="text;strokeColor=none;fillColor=none;align=left;verticalAlign=middle;spacingLeft=4;spacingRight=4;overflow=hidden;points=[[0,0.5],[1,0.5]];portConstraint=eastwest;rotatable=0;whiteSpace=wrap;html=1;" vertex="1" parent="ROnOkawZ2Cybfb2u-ls_-1">
          <mxGeometry y="120" width="140" height="30" as="geometry" />
        </mxCell>
        <mxCell id="ROnOkawZ2Cybfb2u-ls_-6" value="sport" style="text;strokeColor=none;fillColor=none;align=left;verticalAlign=middle;spacingLeft=4;spacingRight=4;overflow=hidden;points=[[0,0.5],[1,0.5]];portConstraint=eastwest;rotatable=0;whiteSpace=wrap;html=1;" vertex="1" parent="ROnOkawZ2Cybfb2u-ls_-1">
          <mxGeometry y="150" width="140" height="30" as="geometry" />
        </mxCell>
      </root>
    </mxGraphModel>
  </diagram>
  <diagram id="gyWDWCEw5lDGex40XNWB" name="Commands">
    <mxGraphModel dx="2712" dy="1071" grid="1" gridSize="10" guides="1" tooltips="1" connect="1" arrows="1" fold="1" page="1" pageScale="1" pageWidth="827" pageHeight="1169" math="0" shadow="0">
      <root>
        <mxCell id="0" />
        <mxCell id="1" parent="0" />
        <mxCell id="4yBwSWRZ034PuqA6Ugif-1" value="Command" style="swimlane;fontStyle=0;childLayout=stackLayout;horizontal=1;startSize=30;horizontalStack=0;resizeParent=1;resizeParentMax=0;resizeLast=0;collapsible=1;marginBottom=0;whiteSpace=wrap;html=1;" vertex="1" parent="1">
          <mxGeometry x="284" y="110" width="286" height="210" as="geometry" />
        </mxCell>
        <mxCell id="4yBwSWRZ034PuqA6Ugif-2" value="title" style="text;strokeColor=none;fillColor=none;align=left;verticalAlign=middle;spacingLeft=4;spacingRight=4;overflow=hidden;points=[[0,0.5],[1,0.5]];portConstraint=eastwest;rotatable=0;whiteSpace=wrap;html=1;" vertex="1" parent="4yBwSWRZ034PuqA6Ugif-1">
          <mxGeometry y="30" width="286" height="30" as="geometry" />
        </mxCell>
        <mxCell id="4yBwSWRZ034PuqA6Ugif-3" value="description" style="text;strokeColor=none;fillColor=none;align=left;verticalAlign=middle;spacingLeft=4;spacingRight=4;overflow=hidden;points=[[0,0.5],[1,0.5]];portConstraint=eastwest;rotatable=0;whiteSpace=wrap;html=1;" vertex="1" parent="4yBwSWRZ034PuqA6Ugif-1">
          <mxGeometry y="60" width="286" height="30" as="geometry" />
        </mxCell>
        <mxCell id="4yBwSWRZ034PuqA6Ugif-4" value="Command(String title, String description)" style="text;strokeColor=none;fillColor=none;align=left;verticalAlign=middle;spacingLeft=4;spacingRight=4;overflow=hidden;points=[[0,0.5],[1,0.5]];portConstraint=eastwest;rotatable=0;whiteSpace=wrap;html=1;" vertex="1" parent="4yBwSWRZ034PuqA6Ugif-1">
          <mxGeometry y="90" width="286" height="30" as="geometry" />
        </mxCell>
        <mxCell id="4yBwSWRZ034PuqA6Ugif-7" value="getTitle()" style="text;strokeColor=none;fillColor=none;align=left;verticalAlign=middle;spacingLeft=4;spacingRight=4;overflow=hidden;points=[[0,0.5],[1,0.5]];portConstraint=eastwest;rotatable=0;whiteSpace=wrap;html=1;" vertex="1" parent="4yBwSWRZ034PuqA6Ugif-1">
          <mxGeometry y="120" width="286" height="30" as="geometry" />
        </mxCell>
        <mxCell id="4yBwSWRZ034PuqA6Ugif-8" value="getDescription()" style="text;strokeColor=none;fillColor=none;align=left;verticalAlign=middle;spacingLeft=4;spacingRight=4;overflow=hidden;points=[[0,0.5],[1,0.5]];portConstraint=eastwest;rotatable=0;whiteSpace=wrap;html=1;" vertex="1" parent="4yBwSWRZ034PuqA6Ugif-1">
          <mxGeometry y="150" width="286" height="30" as="geometry" />
        </mxCell>
        <mxCell id="4yBwSWRZ034PuqA6Ugif-9" value="execute()" style="text;strokeColor=none;fillColor=none;align=left;verticalAlign=middle;spacingLeft=4;spacingRight=4;overflow=hidden;points=[[0,0.5],[1,0.5]];portConstraint=eastwest;rotatable=0;whiteSpace=wrap;html=1;" vertex="1" parent="4yBwSWRZ034PuqA6Ugif-1">
          <mxGeometry y="180" width="286" height="30" as="geometry" />
        </mxCell>
        <mxCell id="4yBwSWRZ034PuqA6Ugif-10" value="CreateCommand" style="swimlane;fontStyle=0;childLayout=stackLayout;horizontal=1;startSize=30;horizontalStack=0;resizeParent=1;resizeParentMax=0;resizeLast=0;collapsible=1;marginBottom=0;whiteSpace=wrap;html=1;" vertex="1" parent="1">
          <mxGeometry x="-96" y="400" width="160" height="90" as="geometry" />
        </mxCell>
        <mxCell id="4yBwSWRZ034PuqA6Ugif-11" value="super (?)" style="text;strokeColor=none;fillColor=none;align=left;verticalAlign=middle;spacingLeft=4;spacingRight=4;overflow=hidden;points=[[0,0.5],[1,0.5]];portConstraint=eastwest;rotatable=0;whiteSpace=wrap;html=1;" vertex="1" parent="4yBwSWRZ034PuqA6Ugif-10">
          <mxGeometry y="30" width="160" height="30" as="geometry" />
        </mxCell>
        <mxCell id="4yBwSWRZ034PuqA6Ugif-13" value="abstract create()" style="text;strokeColor=none;fillColor=none;align=left;verticalAlign=middle;spacingLeft=4;spacingRight=4;overflow=hidden;points=[[0,0.5],[1,0.5]];portConstraint=eastwest;rotatable=0;whiteSpace=wrap;html=1;" vertex="1" parent="4yBwSWRZ034PuqA6Ugif-10">
          <mxGeometry y="60" width="160" height="30" as="geometry" />
        </mxCell>
        <mxCell id="4yBwSWRZ034PuqA6Ugif-17" value="" style="endArrow=none;html=1;rounded=0;exitX=0.5;exitY=0;exitDx=0;exitDy=0;entryX=0.49;entryY=1;entryDx=0;entryDy=0;entryPerimeter=0;" edge="1" parent="1" source="4yBwSWRZ034PuqA6Ugif-10" target="4yBwSWRZ034PuqA6Ugif-9">
          <mxGeometry width="50" height="50" relative="1" as="geometry">
            <mxPoint x="414" y="380" as="sourcePoint" />
            <mxPoint x="464" y="330" as="targetPoint" />
          </mxGeometry>
        </mxCell>
        <mxCell id="4yBwSWRZ034PuqA6Ugif-18" value="DeleteCommand" style="swimlane;fontStyle=0;childLayout=stackLayout;horizontal=1;startSize=30;horizontalStack=0;resizeParent=1;resizeParentMax=0;resizeLast=0;collapsible=1;marginBottom=0;whiteSpace=wrap;html=1;" vertex="1" parent="1">
          <mxGeometry x="744" y="410" width="160" height="90" as="geometry" />
        </mxCell>
        <mxCell id="4yBwSWRZ034PuqA6Ugif-19" value="super (?)" style="text;strokeColor=none;fillColor=none;align=left;verticalAlign=middle;spacingLeft=4;spacingRight=4;overflow=hidden;points=[[0,0.5],[1,0.5]];portConstraint=eastwest;rotatable=0;whiteSpace=wrap;html=1;" vertex="1" parent="4yBwSWRZ034PuqA6Ugif-18">
          <mxGeometry y="30" width="160" height="30" as="geometry" />
        </mxCell>
        <mxCell id="4yBwSWRZ034PuqA6Ugif-20" value="abstract delete()" style="text;strokeColor=none;fillColor=none;align=left;verticalAlign=middle;spacingLeft=4;spacingRight=4;overflow=hidden;points=[[0,0.5],[1,0.5]];portConstraint=eastwest;rotatable=0;whiteSpace=wrap;html=1;" vertex="1" parent="4yBwSWRZ034PuqA6Ugif-18">
          <mxGeometry y="60" width="160" height="30" as="geometry" />
        </mxCell>
        <mxCell id="4yBwSWRZ034PuqA6Ugif-27" value="" style="endArrow=none;html=1;rounded=0;exitX=0.5;exitY=0;exitDx=0;exitDy=0;" edge="1" parent="1" source="4yBwSWRZ034PuqA6Ugif-18">
          <mxGeometry width="50" height="50" relative="1" as="geometry">
            <mxPoint x="464" y="620" as="sourcePoint" />
            <mxPoint x="424" y="320" as="targetPoint" />
          </mxGeometry>
        </mxCell>
        <mxCell id="4yBwSWRZ034PuqA6Ugif-28" value="CreatePlayerCommand" style="swimlane;fontStyle=0;childLayout=stackLayout;horizontal=1;startSize=30;horizontalStack=0;resizeParent=1;resizeParentMax=0;resizeLast=0;collapsible=1;marginBottom=0;whiteSpace=wrap;html=1;" vertex="1" parent="1">
          <mxGeometry x="-306" y="540" width="180" height="90" as="geometry" />
        </mxCell>
        <mxCell id="4yBwSWRZ034PuqA6Ugif-29" value="super (&quot;player-create&quot;, &quot;.....&quot;)" style="text;strokeColor=none;fillColor=none;align=left;verticalAlign=middle;spacingLeft=4;spacingRight=4;overflow=hidden;points=[[0,0.5],[1,0.5]];portConstraint=eastwest;rotatable=0;whiteSpace=wrap;html=1;" vertex="1" parent="4yBwSWRZ034PuqA6Ugif-28">
          <mxGeometry y="30" width="180" height="30" as="geometry" />
        </mxCell>
        <mxCell id="4yBwSWRZ034PuqA6Ugif-30" value="create(Player player)" style="text;strokeColor=none;fillColor=none;align=left;verticalAlign=middle;spacingLeft=4;spacingRight=4;overflow=hidden;points=[[0,0.5],[1,0.5]];portConstraint=eastwest;rotatable=0;whiteSpace=wrap;html=1;" vertex="1" parent="4yBwSWRZ034PuqA6Ugif-28">
          <mxGeometry y="60" width="180" height="30" as="geometry" />
        </mxCell>
        <mxCell id="4yBwSWRZ034PuqA6Ugif-31" value="CreateTeamCommand" style="swimlane;fontStyle=0;childLayout=stackLayout;horizontal=1;startSize=30;horizontalStack=0;resizeParent=1;resizeParentMax=0;resizeLast=0;collapsible=1;marginBottom=0;whiteSpace=wrap;html=1;" vertex="1" parent="1">
          <mxGeometry x="-106" y="540" width="180" height="90" as="geometry" />
        </mxCell>
        <mxCell id="4yBwSWRZ034PuqA6Ugif-32" value="super (&quot;team-create&quot;, &quot;.....&quot;)" style="text;strokeColor=none;fillColor=none;align=left;verticalAlign=middle;spacingLeft=4;spacingRight=4;overflow=hidden;points=[[0,0.5],[1,0.5]];portConstraint=eastwest;rotatable=0;whiteSpace=wrap;html=1;" vertex="1" parent="4yBwSWRZ034PuqA6Ugif-31">
          <mxGeometry y="30" width="180" height="30" as="geometry" />
        </mxCell>
        <mxCell id="4yBwSWRZ034PuqA6Ugif-33" value="create(Team team)" style="text;strokeColor=none;fillColor=none;align=left;verticalAlign=middle;spacingLeft=4;spacingRight=4;overflow=hidden;points=[[0,0.5],[1,0.5]];portConstraint=eastwest;rotatable=0;whiteSpace=wrap;html=1;" vertex="1" parent="4yBwSWRZ034PuqA6Ugif-31">
          <mxGeometry y="60" width="180" height="30" as="geometry" />
        </mxCell>
        <mxCell id="4yBwSWRZ034PuqA6Ugif-34" value="CreateTournamentCommand" style="swimlane;fontStyle=0;childLayout=stackLayout;horizontal=1;startSize=30;horizontalStack=0;resizeParent=1;resizeParentMax=0;resizeLast=0;collapsible=1;marginBottom=0;whiteSpace=wrap;html=1;" vertex="1" parent="1">
          <mxGeometry x="94" y="540" width="200" height="90" as="geometry" />
        </mxCell>
        <mxCell id="4yBwSWRZ034PuqA6Ugif-35" value="super (&quot;tournament-create&quot;, &quot;.....&quot;)" style="text;strokeColor=none;fillColor=none;align=left;verticalAlign=middle;spacingLeft=4;spacingRight=4;overflow=hidden;points=[[0,0.5],[1,0.5]];portConstraint=eastwest;rotatable=0;whiteSpace=wrap;html=1;" vertex="1" parent="4yBwSWRZ034PuqA6Ugif-34">
          <mxGeometry y="30" width="200" height="30" as="geometry" />
        </mxCell>
        <mxCell id="4yBwSWRZ034PuqA6Ugif-36" value="create(Tournament tournament)" style="text;strokeColor=none;fillColor=none;align=left;verticalAlign=middle;spacingLeft=4;spacingRight=4;overflow=hidden;points=[[0,0.5],[1,0.5]];portConstraint=eastwest;rotatable=0;whiteSpace=wrap;html=1;" vertex="1" parent="4yBwSWRZ034PuqA6Ugif-34">
          <mxGeometry y="60" width="200" height="30" as="geometry" />
        </mxCell>
        <mxCell id="4yBwSWRZ034PuqA6Ugif-39" value="" style="endArrow=none;html=1;rounded=0;entryX=0.499;entryY=1.002;entryDx=0;entryDy=0;entryPerimeter=0;exitX=0.5;exitY=0;exitDx=0;exitDy=0;" edge="1" parent="1" source="4yBwSWRZ034PuqA6Ugif-28" target="4yBwSWRZ034PuqA6Ugif-13">
          <mxGeometry width="50" height="50" relative="1" as="geometry">
            <mxPoint x="204" y="530" as="sourcePoint" />
            <mxPoint x="254" y="480" as="targetPoint" />
          </mxGeometry>
        </mxCell>
        <mxCell id="4yBwSWRZ034PuqA6Ugif-40" value="" style="endArrow=none;html=1;rounded=0;exitX=0.5;exitY=0;exitDx=0;exitDy=0;" edge="1" parent="1" source="4yBwSWRZ034PuqA6Ugif-31">
          <mxGeometry width="50" height="50" relative="1" as="geometry">
            <mxPoint x="-116" y="550" as="sourcePoint" />
            <mxPoint x="-16" y="490" as="targetPoint" />
          </mxGeometry>
        </mxCell>
        <mxCell id="4yBwSWRZ034PuqA6Ugif-41" value="" style="endArrow=none;html=1;rounded=0;exitX=0.5;exitY=0;exitDx=0;exitDy=0;" edge="1" parent="1" source="4yBwSWRZ034PuqA6Ugif-34">
          <mxGeometry width="50" height="50" relative="1" as="geometry">
            <mxPoint x="-106" y="560" as="sourcePoint" />
            <mxPoint x="-16" y="490" as="targetPoint" />
          </mxGeometry>
        </mxCell>
        <mxCell id="4yBwSWRZ034PuqA6Ugif-42" value="DeletePlayerCommand" style="swimlane;fontStyle=0;childLayout=stackLayout;horizontal=1;startSize=30;horizontalStack=0;resizeParent=1;resizeParentMax=0;resizeLast=0;collapsible=1;marginBottom=0;whiteSpace=wrap;html=1;" vertex="1" parent="1">
          <mxGeometry x="534" y="540" width="180" height="90" as="geometry" />
        </mxCell>
        <mxCell id="4yBwSWRZ034PuqA6Ugif-43" value="super (&quot;player-delete&quot;, &quot;.....&quot;)" style="text;strokeColor=none;fillColor=none;align=left;verticalAlign=middle;spacingLeft=4;spacingRight=4;overflow=hidden;points=[[0,0.5],[1,0.5]];portConstraint=eastwest;rotatable=0;whiteSpace=wrap;html=1;" vertex="1" parent="4yBwSWRZ034PuqA6Ugif-42">
          <mxGeometry y="30" width="180" height="30" as="geometry" />
        </mxCell>
        <mxCell id="4yBwSWRZ034PuqA6Ugif-44" value="delete(Player player)" style="text;strokeColor=none;fillColor=none;align=left;verticalAlign=middle;spacingLeft=4;spacingRight=4;overflow=hidden;points=[[0,0.5],[1,0.5]];portConstraint=eastwest;rotatable=0;whiteSpace=wrap;html=1;" vertex="1" parent="4yBwSWRZ034PuqA6Ugif-42">
          <mxGeometry y="60" width="180" height="30" as="geometry" />
        </mxCell>
        <mxCell id="4yBwSWRZ034PuqA6Ugif-45" value="DeleteTeamCommand" style="swimlane;fontStyle=0;childLayout=stackLayout;horizontal=1;startSize=30;horizontalStack=0;resizeParent=1;resizeParentMax=0;resizeLast=0;collapsible=1;marginBottom=0;whiteSpace=wrap;html=1;" vertex="1" parent="1">
          <mxGeometry x="734" y="540" width="180" height="90" as="geometry" />
        </mxCell>
        <mxCell id="4yBwSWRZ034PuqA6Ugif-46" value="super (&quot;team-delete&quot;, &quot;.....&quot;)" style="text;strokeColor=none;fillColor=none;align=left;verticalAlign=middle;spacingLeft=4;spacingRight=4;overflow=hidden;points=[[0,0.5],[1,0.5]];portConstraint=eastwest;rotatable=0;whiteSpace=wrap;html=1;" vertex="1" parent="4yBwSWRZ034PuqA6Ugif-45">
          <mxGeometry y="30" width="180" height="30" as="geometry" />
        </mxCell>
        <mxCell id="4yBwSWRZ034PuqA6Ugif-47" value="delete(Team team)" style="text;strokeColor=none;fillColor=none;align=left;verticalAlign=middle;spacingLeft=4;spacingRight=4;overflow=hidden;points=[[0,0.5],[1,0.5]];portConstraint=eastwest;rotatable=0;whiteSpace=wrap;html=1;" vertex="1" parent="4yBwSWRZ034PuqA6Ugif-45">
          <mxGeometry y="60" width="180" height="30" as="geometry" />
        </mxCell>
        <mxCell id="4yBwSWRZ034PuqA6Ugif-48" value="DeleteTournamentCommand" style="swimlane;fontStyle=0;childLayout=stackLayout;horizontal=1;startSize=30;horizontalStack=0;resizeParent=1;resizeParentMax=0;resizeLast=0;collapsible=1;marginBottom=0;whiteSpace=wrap;html=1;" vertex="1" parent="1">
          <mxGeometry x="934" y="540" width="200" height="90" as="geometry" />
        </mxCell>
        <mxCell id="4yBwSWRZ034PuqA6Ugif-49" value="super (&quot;tournament-delete&quot;, &quot;.....&quot;)" style="text;strokeColor=none;fillColor=none;align=left;verticalAlign=middle;spacingLeft=4;spacingRight=4;overflow=hidden;points=[[0,0.5],[1,0.5]];portConstraint=eastwest;rotatable=0;whiteSpace=wrap;html=1;" vertex="1" parent="4yBwSWRZ034PuqA6Ugif-48">
          <mxGeometry y="30" width="200" height="30" as="geometry" />
        </mxCell>
        <mxCell id="4yBwSWRZ034PuqA6Ugif-50" value="delete(Tournament tournament)" style="text;strokeColor=none;fillColor=none;align=left;verticalAlign=middle;spacingLeft=4;spacingRight=4;overflow=hidden;points=[[0,0.5],[1,0.5]];portConstraint=eastwest;rotatable=0;whiteSpace=wrap;html=1;" vertex="1" parent="4yBwSWRZ034PuqA6Ugif-48">
          <mxGeometry y="60" width="200" height="30" as="geometry" />
        </mxCell>
        <mxCell id="4yBwSWRZ034PuqA6Ugif-51" value="" style="endArrow=none;html=1;rounded=0;exitX=0.5;exitY=0;exitDx=0;exitDy=0;entryX=0.495;entryY=1.014;entryDx=0;entryDy=0;entryPerimeter=0;" edge="1" parent="1" source="4yBwSWRZ034PuqA6Ugif-42" target="4yBwSWRZ034PuqA6Ugif-20">
          <mxGeometry width="50" height="50" relative="1" as="geometry">
            <mxPoint x="344" y="550" as="sourcePoint" />
            <mxPoint x="134" y="500" as="targetPoint" />
          </mxGeometry>
        </mxCell>
        <mxCell id="4yBwSWRZ034PuqA6Ugif-52" value="" style="endArrow=none;html=1;rounded=0;exitX=0.5;exitY=0;exitDx=0;exitDy=0;entryX=0.499;entryY=1.014;entryDx=0;entryDy=0;entryPerimeter=0;" edge="1" parent="1" source="4yBwSWRZ034PuqA6Ugif-45" target="4yBwSWRZ034PuqA6Ugif-20">
          <mxGeometry width="50" height="50" relative="1" as="geometry">
            <mxPoint x="614" y="550" as="sourcePoint" />
            <mxPoint x="833" y="510" as="targetPoint" />
          </mxGeometry>
        </mxCell>
        <mxCell id="4yBwSWRZ034PuqA6Ugif-53" value="" style="endArrow=none;html=1;rounded=0;exitX=0.5;exitY=0;exitDx=0;exitDy=0;" edge="1" parent="1" source="4yBwSWRZ034PuqA6Ugif-48">
          <mxGeometry width="50" height="50" relative="1" as="geometry">
            <mxPoint x="624" y="560" as="sourcePoint" />
            <mxPoint x="824" y="500" as="targetPoint" />
          </mxGeometry>
        </mxCell>
        <mxCell id="4yBwSWRZ034PuqA6Ugif-54" value="AddCommand" style="swimlane;fontStyle=0;childLayout=stackLayout;horizontal=1;startSize=30;horizontalStack=0;resizeParent=1;resizeParentMax=0;resizeLast=0;collapsible=1;marginBottom=0;whiteSpace=wrap;html=1;" vertex="1" parent="1">
          <mxGeometry x="204" y="680" width="160" height="90" as="geometry" />
        </mxCell>
        <mxCell id="4yBwSWRZ034PuqA6Ugif-55" value="super (?)" style="text;strokeColor=none;fillColor=none;align=left;verticalAlign=middle;spacingLeft=4;spacingRight=4;overflow=hidden;points=[[0,0.5],[1,0.5]];portConstraint=eastwest;rotatable=0;whiteSpace=wrap;html=1;" vertex="1" parent="4yBwSWRZ034PuqA6Ugif-54">
          <mxGeometry y="30" width="160" height="30" as="geometry" />
        </mxCell>
        <mxCell id="4yBwSWRZ034PuqA6Ugif-56" value="abstract delete()" style="text;strokeColor=none;fillColor=none;align=left;verticalAlign=middle;spacingLeft=4;spacingRight=4;overflow=hidden;points=[[0,0.5],[1,0.5]];portConstraint=eastwest;rotatable=0;whiteSpace=wrap;html=1;" vertex="1" parent="4yBwSWRZ034PuqA6Ugif-54">
          <mxGeometry y="60" width="160" height="30" as="geometry" />
        </mxCell>
        <mxCell id="4yBwSWRZ034PuqA6Ugif-57" value="RemoveCommand" style="swimlane;fontStyle=0;childLayout=stackLayout;horizontal=1;startSize=30;horizontalStack=0;resizeParent=1;resizeParentMax=0;resizeLast=0;collapsible=1;marginBottom=0;whiteSpace=wrap;html=1;" vertex="1" parent="1">
          <mxGeometry x="454" y="680" width="160" height="90" as="geometry" />
        </mxCell>
        <mxCell id="4yBwSWRZ034PuqA6Ugif-58" value="super (?)" style="text;strokeColor=none;fillColor=none;align=left;verticalAlign=middle;spacingLeft=4;spacingRight=4;overflow=hidden;points=[[0,0.5],[1,0.5]];portConstraint=eastwest;rotatable=0;whiteSpace=wrap;html=1;" vertex="1" parent="4yBwSWRZ034PuqA6Ugif-57">
          <mxGeometry y="30" width="160" height="30" as="geometry" />
        </mxCell>
        <mxCell id="4yBwSWRZ034PuqA6Ugif-59" value="abstract delete()" style="text;strokeColor=none;fillColor=none;align=left;verticalAlign=middle;spacingLeft=4;spacingRight=4;overflow=hidden;points=[[0,0.5],[1,0.5]];portConstraint=eastwest;rotatable=0;whiteSpace=wrap;html=1;" vertex="1" parent="4yBwSWRZ034PuqA6Ugif-57">
          <mxGeometry y="60" width="160" height="30" as="geometry" />
        </mxCell>
        <mxCell id="4yBwSWRZ034PuqA6Ugif-60" value="" style="endArrow=none;html=1;rounded=0;exitX=0.5;exitY=0;exitDx=0;exitDy=0;" edge="1" parent="1" source="4yBwSWRZ034PuqA6Ugif-54">
          <mxGeometry width="50" height="50" relative="1" as="geometry">
            <mxPoint x="54" y="410" as="sourcePoint" />
            <mxPoint x="424" y="320" as="targetPoint" />
          </mxGeometry>
        </mxCell>
        <mxCell id="4yBwSWRZ034PuqA6Ugif-61" value="" style="endArrow=none;html=1;rounded=0;exitX=0.5;exitY=0;exitDx=0;exitDy=0;" edge="1" parent="1" source="4yBwSWRZ034PuqA6Ugif-57">
          <mxGeometry width="50" height="50" relative="1" as="geometry">
            <mxPoint x="234" y="720" as="sourcePoint" />
            <mxPoint x="424" y="320" as="targetPoint" />
          </mxGeometry>
        </mxCell>
        <mxCell id="4yBwSWRZ034PuqA6Ugif-62" value="AddTeamCommand" style="swimlane;fontStyle=0;childLayout=stackLayout;horizontal=1;startSize=30;horizontalStack=0;resizeParent=1;resizeParentMax=0;resizeLast=0;collapsible=1;marginBottom=0;whiteSpace=wrap;html=1;" vertex="1" parent="1">
          <mxGeometry x="4" y="840" width="180" height="90" as="geometry" />
        </mxCell>
        <mxCell id="4yBwSWRZ034PuqA6Ugif-63" value="super (&quot;team-add&quot;, &quot;.....&quot;)" style="text;strokeColor=none;fillColor=none;align=left;verticalAlign=middle;spacingLeft=4;spacingRight=4;overflow=hidden;points=[[0,0.5],[1,0.5]];portConstraint=eastwest;rotatable=0;whiteSpace=wrap;html=1;" vertex="1" parent="4yBwSWRZ034PuqA6Ugif-62">
          <mxGeometry y="30" width="180" height="30" as="geometry" />
        </mxCell>
        <mxCell id="4yBwSWRZ034PuqA6Ugif-64" value="add(Player player)" style="text;strokeColor=none;fillColor=none;align=left;verticalAlign=middle;spacingLeft=4;spacingRight=4;overflow=hidden;points=[[0,0.5],[1,0.5]];portConstraint=eastwest;rotatable=0;whiteSpace=wrap;html=1;" vertex="1" parent="4yBwSWRZ034PuqA6Ugif-62">
          <mxGeometry y="60" width="180" height="30" as="geometry" />
        </mxCell>
        <mxCell id="4yBwSWRZ034PuqA6Ugif-65" value="" style="endArrow=none;html=1;rounded=0;exitX=0.5;exitY=0;exitDx=0;exitDy=0;entryX=0.497;entryY=1.002;entryDx=0;entryDy=0;entryPerimeter=0;" edge="1" parent="1" source="4yBwSWRZ034PuqA6Ugif-62" target="4yBwSWRZ034PuqA6Ugif-56">
          <mxGeometry width="50" height="50" relative="1" as="geometry">
            <mxPoint x="294" y="690" as="sourcePoint" />
            <mxPoint x="434" y="330" as="targetPoint" />
          </mxGeometry>
        </mxCell>
        <mxCell id="4yBwSWRZ034PuqA6Ugif-67" value="AddTournamentCommand" style="swimlane;fontStyle=0;childLayout=stackLayout;horizontal=1;startSize=30;horizontalStack=0;resizeParent=1;resizeParentMax=0;resizeLast=0;collapsible=1;marginBottom=0;whiteSpace=wrap;html=1;" vertex="1" parent="1">
          <mxGeometry x="204" y="840" width="190" height="90" as="geometry" />
        </mxCell>
        <mxCell id="4yBwSWRZ034PuqA6Ugif-68" value="super (&quot;tournament-create&quot;, &quot;.....&quot;)" style="text;strokeColor=none;fillColor=none;align=left;verticalAlign=middle;spacingLeft=4;spacingRight=4;overflow=hidden;points=[[0,0.5],[1,0.5]];portConstraint=eastwest;rotatable=0;whiteSpace=wrap;html=1;" vertex="1" parent="4yBwSWRZ034PuqA6Ugif-67">
          <mxGeometry y="30" width="190" height="30" as="geometry" />
        </mxCell>
        <mxCell id="4yBwSWRZ034PuqA6Ugif-69" value="add(Player player)" style="text;strokeColor=none;fillColor=none;align=left;verticalAlign=middle;spacingLeft=4;spacingRight=4;overflow=hidden;points=[[0,0.5],[1,0.5]];portConstraint=eastwest;rotatable=0;whiteSpace=wrap;html=1;" vertex="1" parent="4yBwSWRZ034PuqA6Ugif-67">
          <mxGeometry y="60" width="190" height="30" as="geometry" />
        </mxCell>
        <mxCell id="4yBwSWRZ034PuqA6Ugif-70" value="" style="endArrow=none;html=1;rounded=0;exitX=0.5;exitY=0;exitDx=0;exitDy=0;" edge="1" parent="1" source="4yBwSWRZ034PuqA6Ugif-67">
          <mxGeometry width="50" height="50" relative="1" as="geometry">
            <mxPoint x="184" y="870" as="sourcePoint" />
            <mxPoint x="284" y="770" as="targetPoint" />
          </mxGeometry>
        </mxCell>
        <mxCell id="4yBwSWRZ034PuqA6Ugif-71" value="DeleteTeamCommand" style="swimlane;fontStyle=0;childLayout=stackLayout;horizontal=1;startSize=30;horizontalStack=0;resizeParent=1;resizeParentMax=0;resizeLast=0;collapsible=1;marginBottom=0;whiteSpace=wrap;html=1;" vertex="1" parent="1">
          <mxGeometry x="424" y="840" width="180" height="90" as="geometry" />
        </mxCell>
        <mxCell id="4yBwSWRZ034PuqA6Ugif-72" value="super (&quot;team-delete&quot;, &quot;.....&quot;)" style="text;strokeColor=none;fillColor=none;align=left;verticalAlign=middle;spacingLeft=4;spacingRight=4;overflow=hidden;points=[[0,0.5],[1,0.5]];portConstraint=eastwest;rotatable=0;whiteSpace=wrap;html=1;" vertex="1" parent="4yBwSWRZ034PuqA6Ugif-71">
          <mxGeometry y="30" width="180" height="30" as="geometry" />
        </mxCell>
        <mxCell id="4yBwSWRZ034PuqA6Ugif-73" value="delete(Player player)" style="text;strokeColor=none;fillColor=none;align=left;verticalAlign=middle;spacingLeft=4;spacingRight=4;overflow=hidden;points=[[0,0.5],[1,0.5]];portConstraint=eastwest;rotatable=0;whiteSpace=wrap;html=1;" vertex="1" parent="4yBwSWRZ034PuqA6Ugif-71">
          <mxGeometry y="60" width="180" height="30" as="geometry" />
        </mxCell>
        <mxCell id="4yBwSWRZ034PuqA6Ugif-74" value="DeleteTournamentCommand" style="swimlane;fontStyle=0;childLayout=stackLayout;horizontal=1;startSize=30;horizontalStack=0;resizeParent=1;resizeParentMax=0;resizeLast=0;collapsible=1;marginBottom=0;whiteSpace=wrap;html=1;" vertex="1" parent="1">
          <mxGeometry x="624" y="840" width="190" height="90" as="geometry" />
        </mxCell>
        <mxCell id="4yBwSWRZ034PuqA6Ugif-75" value="super (&quot;tournament-delete&quot;, &quot;.....&quot;)" style="text;strokeColor=none;fillColor=none;align=left;verticalAlign=middle;spacingLeft=4;spacingRight=4;overflow=hidden;points=[[0,0.5],[1,0.5]];portConstraint=eastwest;rotatable=0;whiteSpace=wrap;html=1;" vertex="1" parent="4yBwSWRZ034PuqA6Ugif-74">
          <mxGeometry y="30" width="190" height="30" as="geometry" />
        </mxCell>
        <mxCell id="4yBwSWRZ034PuqA6Ugif-76" value="delete(Player player)" style="text;strokeColor=none;fillColor=none;align=left;verticalAlign=middle;spacingLeft=4;spacingRight=4;overflow=hidden;points=[[0,0.5],[1,0.5]];portConstraint=eastwest;rotatable=0;whiteSpace=wrap;html=1;" vertex="1" parent="4yBwSWRZ034PuqA6Ugif-74">
          <mxGeometry y="60" width="190" height="30" as="geometry" />
        </mxCell>
        <mxCell id="4yBwSWRZ034PuqA6Ugif-77" value="" style="endArrow=none;html=1;rounded=0;exitX=0.5;exitY=0;exitDx=0;exitDy=0;entryX=0.499;entryY=1.002;entryDx=0;entryDy=0;entryPerimeter=0;" edge="1" parent="1" source="4yBwSWRZ034PuqA6Ugif-71" target="4yBwSWRZ034PuqA6Ugif-59">
          <mxGeometry width="50" height="50" relative="1" as="geometry">
            <mxPoint x="309" y="850" as="sourcePoint" />
            <mxPoint x="294" y="780" as="targetPoint" />
          </mxGeometry>
        </mxCell>
        <mxCell id="4yBwSWRZ034PuqA6Ugif-78" value="" style="endArrow=none;html=1;rounded=0;exitX=0.5;exitY=0;exitDx=0;exitDy=0;entryX=0.504;entryY=1.048;entryDx=0;entryDy=0;entryPerimeter=0;" edge="1" parent="1" source="4yBwSWRZ034PuqA6Ugif-74" target="4yBwSWRZ034PuqA6Ugif-59">
          <mxGeometry width="50" height="50" relative="1" as="geometry">
            <mxPoint x="594" y="850" as="sourcePoint" />
            <mxPoint x="544" y="780" as="targetPoint" />
          </mxGeometry>
        </mxCell>
        <mxCell id="4yBwSWRZ034PuqA6Ugif-79" value="StatisticsShowCommand" style="swimlane;fontStyle=0;childLayout=stackLayout;horizontal=1;startSize=30;horizontalStack=0;resizeParent=1;resizeParentMax=0;resizeLast=0;collapsible=1;marginBottom=0;whiteSpace=wrap;html=1;" vertex="1" parent="1">
          <mxGeometry x="30" y="150" width="180" height="90" as="geometry" />
        </mxCell>
        <mxCell id="4yBwSWRZ034PuqA6Ugif-80" value="super (&quot;statistics-show&quot;, &quot;....&quot;)" style="text;strokeColor=none;fillColor=none;align=left;verticalAlign=middle;spacingLeft=4;spacingRight=4;overflow=hidden;points=[[0,0.5],[1,0.5]];portConstraint=eastwest;rotatable=0;whiteSpace=wrap;html=1;" vertex="1" parent="4yBwSWRZ034PuqA6Ugif-79">
          <mxGeometry y="30" width="180" height="30" as="geometry" />
        </mxCell>
        <mxCell id="4yBwSWRZ034PuqA6Ugif-81" value="showStatistics()" style="text;strokeColor=none;fillColor=none;align=left;verticalAlign=middle;spacingLeft=4;spacingRight=4;overflow=hidden;points=[[0,0.5],[1,0.5]];portConstraint=eastwest;rotatable=0;whiteSpace=wrap;html=1;" vertex="1" parent="4yBwSWRZ034PuqA6Ugif-79">
          <mxGeometry y="60" width="180" height="30" as="geometry" />
        </mxCell>
        <mxCell id="4yBwSWRZ034PuqA6Ugif-82" value="TournamentMatchmakingCommand" style="swimlane;fontStyle=0;childLayout=stackLayout;horizontal=1;startSize=30;horizontalStack=0;resizeParent=1;resizeParentMax=0;resizeLast=0;collapsible=1;marginBottom=0;whiteSpace=wrap;html=1;" vertex="1" parent="1">
          <mxGeometry x="4" y="50" width="230" height="90" as="geometry" />
        </mxCell>
        <mxCell id="4yBwSWRZ034PuqA6Ugif-83" value="super (&quot;tournament-matchmaking&quot;, &quot;....&quot;)" style="text;strokeColor=none;fillColor=none;align=left;verticalAlign=middle;spacingLeft=4;spacingRight=4;overflow=hidden;points=[[0,0.5],[1,0.5]];portConstraint=eastwest;rotatable=0;whiteSpace=wrap;html=1;" vertex="1" parent="4yBwSWRZ034PuqA6Ugif-82">
          <mxGeometry y="30" width="230" height="30" as="geometry" />
        </mxCell>
        <mxCell id="4yBwSWRZ034PuqA6Ugif-84" value="matchmake()" style="text;strokeColor=none;fillColor=none;align=left;verticalAlign=middle;spacingLeft=4;spacingRight=4;overflow=hidden;points=[[0,0.5],[1,0.5]];portConstraint=eastwest;rotatable=0;whiteSpace=wrap;html=1;" vertex="1" parent="4yBwSWRZ034PuqA6Ugif-82">
          <mxGeometry y="60" width="230" height="30" as="geometry" />
        </mxCell>
        <mxCell id="4yBwSWRZ034PuqA6Ugif-85" value="TournamentListCommand" style="swimlane;fontStyle=0;childLayout=stackLayout;horizontal=1;startSize=30;horizontalStack=0;resizeParent=1;resizeParentMax=0;resizeLast=0;collapsible=1;marginBottom=0;whiteSpace=wrap;html=1;" vertex="1" parent="1">
          <mxGeometry x="30" y="250" width="180" height="90" as="geometry" />
        </mxCell>
        <mxCell id="4yBwSWRZ034PuqA6Ugif-86" value="super (&quot;tournament-list&quot;, &quot;....&quot;)" style="text;strokeColor=none;fillColor=none;align=left;verticalAlign=middle;spacingLeft=4;spacingRight=4;overflow=hidden;points=[[0,0.5],[1,0.5]];portConstraint=eastwest;rotatable=0;whiteSpace=wrap;html=1;" vertex="1" parent="4yBwSWRZ034PuqA6Ugif-85">
          <mxGeometry y="30" width="180" height="30" as="geometry" />
        </mxCell>
        <mxCell id="4yBwSWRZ034PuqA6Ugif-87" value="showTournaments()" style="text;strokeColor=none;fillColor=none;align=left;verticalAlign=middle;spacingLeft=4;spacingRight=4;overflow=hidden;points=[[0,0.5],[1,0.5]];portConstraint=eastwest;rotatable=0;whiteSpace=wrap;html=1;" vertex="1" parent="4yBwSWRZ034PuqA6Ugif-85">
          <mxGeometry y="60" width="180" height="30" as="geometry" />
        </mxCell>
        <mxCell id="4yBwSWRZ034PuqA6Ugif-88" value="LoginCommand" style="swimlane;fontStyle=0;childLayout=stackLayout;horizontal=1;startSize=30;horizontalStack=0;resizeParent=1;resizeParentMax=0;resizeLast=0;collapsible=1;marginBottom=0;whiteSpace=wrap;html=1;" vertex="1" parent="1">
          <mxGeometry x="664" y="120" width="180" height="90" as="geometry" />
        </mxCell>
        <mxCell id="4yBwSWRZ034PuqA6Ugif-89" value="super (&quot;login&quot;, &quot;....&quot;)" style="text;strokeColor=none;fillColor=none;align=left;verticalAlign=middle;spacingLeft=4;spacingRight=4;overflow=hidden;points=[[0,0.5],[1,0.5]];portConstraint=eastwest;rotatable=0;whiteSpace=wrap;html=1;" vertex="1" parent="4yBwSWRZ034PuqA6Ugif-88">
          <mxGeometry y="30" width="180" height="30" as="geometry" />
        </mxCell>
        <mxCell id="4yBwSWRZ034PuqA6Ugif-90" value="login()" style="text;strokeColor=none;fillColor=none;align=left;verticalAlign=middle;spacingLeft=4;spacingRight=4;overflow=hidden;points=[[0,0.5],[1,0.5]];portConstraint=eastwest;rotatable=0;whiteSpace=wrap;html=1;" vertex="1" parent="4yBwSWRZ034PuqA6Ugif-88">
          <mxGeometry y="60" width="180" height="30" as="geometry" />
        </mxCell>
        <mxCell id="4yBwSWRZ034PuqA6Ugif-91" value="LogoutCommand" style="swimlane;fontStyle=0;childLayout=stackLayout;horizontal=1;startSize=30;horizontalStack=0;resizeParent=1;resizeParentMax=0;resizeLast=0;collapsible=1;marginBottom=0;whiteSpace=wrap;html=1;" vertex="1" parent="1">
          <mxGeometry x="664" y="220" width="180" height="90" as="geometry" />
        </mxCell>
        <mxCell id="4yBwSWRZ034PuqA6Ugif-92" value="super (&quot;logout&quot;, &quot;....&quot;)" style="text;strokeColor=none;fillColor=none;align=left;verticalAlign=middle;spacingLeft=4;spacingRight=4;overflow=hidden;points=[[0,0.5],[1,0.5]];portConstraint=eastwest;rotatable=0;whiteSpace=wrap;html=1;" vertex="1" parent="4yBwSWRZ034PuqA6Ugif-91">
          <mxGeometry y="30" width="180" height="30" as="geometry" />
        </mxCell>
        <mxCell id="4yBwSWRZ034PuqA6Ugif-93" value="logout()" style="text;strokeColor=none;fillColor=none;align=left;verticalAlign=middle;spacingLeft=4;spacingRight=4;overflow=hidden;points=[[0,0.5],[1,0.5]];portConstraint=eastwest;rotatable=0;whiteSpace=wrap;html=1;" vertex="1" parent="4yBwSWRZ034PuqA6Ugif-91">
          <mxGeometry y="60" width="180" height="30" as="geometry" />
        </mxCell>
        <mxCell id="4yBwSWRZ034PuqA6Ugif-96" value="" style="endArrow=none;html=1;rounded=0;exitX=1;exitY=0.5;exitDx=0;exitDy=0;entryX=0;entryY=0.5;entryDx=0;entryDy=0;" edge="1" parent="1" source="4yBwSWRZ034PuqA6Ugif-4" target="4yBwSWRZ034PuqA6Ugif-92">
          <mxGeometry width="50" height="50" relative="1" as="geometry">
            <mxPoint x="580" y="233" as="sourcePoint" />
            <mxPoint x="662" y="258" as="targetPoint" />
          </mxGeometry>
        </mxCell>
        <mxCell id="4yBwSWRZ034PuqA6Ugif-97" value="" style="endArrow=none;html=1;rounded=0;exitX=1;exitY=0.5;exitDx=0;exitDy=0;entryX=0;entryY=0.5;entryDx=0;entryDy=0;" edge="1" parent="1" source="4yBwSWRZ034PuqA6Ugif-83" target="4yBwSWRZ034PuqA6Ugif-4">
          <mxGeometry width="50" height="50" relative="1" as="geometry">
            <mxPoint x="586" y="163" as="sourcePoint" />
            <mxPoint x="680" y="105" as="targetPoint" />
          </mxGeometry>
        </mxCell>
        <mxCell id="4yBwSWRZ034PuqA6Ugif-98" value="" style="endArrow=none;html=1;rounded=0;entryX=0;entryY=0.5;entryDx=0;entryDy=0;exitX=1;exitY=0.5;exitDx=0;exitDy=0;" edge="1" parent="1" source="4yBwSWRZ034PuqA6Ugif-4">
          <mxGeometry width="50" height="50" relative="1" as="geometry">
            <mxPoint x="570" y="220" as="sourcePoint" />
            <mxPoint x="664" y="165" as="targetPoint" />
          </mxGeometry>
        </mxCell>
        <mxCell id="4yBwSWRZ034PuqA6Ugif-99" value="" style="endArrow=none;html=1;rounded=0;exitX=1;exitY=0.5;exitDx=0;exitDy=0;entryX=0;entryY=0.5;entryDx=0;entryDy=0;" edge="1" parent="1" source="4yBwSWRZ034PuqA6Ugif-80" target="4yBwSWRZ034PuqA6Ugif-4">
          <mxGeometry width="50" height="50" relative="1" as="geometry">
            <mxPoint x="244" y="105" as="sourcePoint" />
            <mxPoint x="294" y="225" as="targetPoint" />
          </mxGeometry>
        </mxCell>
        <mxCell id="4yBwSWRZ034PuqA6Ugif-100" value="" style="endArrow=none;html=1;rounded=0;exitX=1;exitY=0.5;exitDx=0;exitDy=0;entryX=0;entryY=0.5;entryDx=0;entryDy=0;" edge="1" parent="1" source="4yBwSWRZ034PuqA6Ugif-86" target="4yBwSWRZ034PuqA6Ugif-4">
          <mxGeometry width="50" height="50" relative="1" as="geometry">
            <mxPoint x="220" y="205" as="sourcePoint" />
            <mxPoint x="294" y="225" as="targetPoint" />
          </mxGeometry>
        </mxCell>
      </root>
    </mxGraphModel>
  </diagram>
</mxfile>
